<svg width="56" height="57" viewBox="0 0 56 57" fill="none" xmlns="http://www.w3.org/2000/svg">
<path d="M44.9837 21.479C44.9336 21.372 44.8623 21.2763 44.7741 21.1976C44.686 21.119 44.5828 21.059 44.4709 21.0212C44.3589 20.9835 44.2404 20.9688 44.1227 20.9781C44.0049 20.9874 43.8902 21.0205 43.7855 21.0753C43.6808 21.1301 43.5884 21.2056 43.5136 21.2971C43.4389 21.3886 43.3835 21.4943 43.3508 21.6079C43.318 21.7214 43.3086 21.8404 43.3231 21.9576C43.3375 22.0749 43.3756 22.188 43.435 22.2902L43.428 22.2937C44.9429 26.0531 45.0333 30.2363 43.6822 34.0576C42.3312 37.879 39.6316 41.0758 36.0903 43.0476C32.5491 45.0194 28.4099 45.6307 24.4499 44.7667C20.4898 43.9027 16.9814 41.6228 14.5834 38.3551C12.1854 35.0874 11.0628 31.0567 11.4263 27.0198C11.7898 22.9829 13.6144 19.2176 16.5576 16.4309C19.5008 13.6441 23.3601 12.0276 27.4107 11.8849C31.4614 11.7422 35.4249 13.0832 38.5569 15.6559L38.5577 15.6542C38.7257 15.7979 38.942 15.8727 39.1629 15.8636C39.3838 15.8544 39.5931 15.7619 39.7486 15.6047C39.9041 15.4476 39.9944 15.2373 40.0012 15.0163C40.008 14.7953 39.9309 14.5799 39.7854 14.4134L39.7915 14.4073L39.7311 14.3565C39.701 14.3277 39.6688 14.3011 39.6349 14.2769C36.1717 11.4501 31.795 9.98628 27.3281 10.1607C22.8612 10.3351 18.6119 12.1358 15.3797 15.224C12.1476 18.3122 10.1552 22.475 9.7776 26.9294C9.39995 31.3837 10.663 35.8226 13.3291 39.4108C15.9952 42.9991 19.8807 45.4895 24.2545 46.4134C28.6283 47.3374 33.189 46.6312 37.0786 44.4279C40.9682 42.2245 43.9186 38.6757 45.3748 34.4492C46.8309 30.2227 46.6925 25.6097 44.9855 21.4782L44.9837 21.479Z" fill="#101162"/>
<path d="M19.25 25.875C19.7332 25.875 20.125 25.4832 20.125 25C20.125 24.5168 19.7332 24.125 19.25 24.125C18.7668 24.125 18.375 24.5168 18.375 25C18.375 25.4832 18.7668 25.875 19.25 25.875Z" fill="#101162"/>
<path d="M46.4117 13.8813C46.3304 13.7998 46.2338 13.7352 46.1274 13.6912C46.021 13.6472 45.907 13.6246 45.7919 13.6248C45.6767 13.6249 45.5628 13.6478 45.4565 13.6921C45.3503 13.7365 45.2538 13.8014 45.1727 13.8831L27.188 31.8687L22.4953 27.1769C22.4146 27.0934 22.3181 27.0267 22.2113 26.9808C22.1046 26.935 21.9898 26.9109 21.8736 26.9098C21.7574 26.9088 21.6422 26.931 21.5346 26.975C21.4271 27.019 21.3294 27.0839 21.2472 27.1661C21.1651 27.2482 21.1001 27.3459 21.0561 27.4535C21.0121 27.561 20.99 27.6762 20.991 27.7924C20.992 27.9086 21.0161 28.0234 21.062 28.1302C21.1079 28.2369 21.1745 28.3335 21.2581 28.4142L26.5676 33.7228C26.6488 33.8048 26.7454 33.8698 26.8519 33.9141C26.9584 33.9584 27.0726 33.9811 27.188 33.9809C27.4199 33.9801 27.6421 33.888 27.8066 33.7246L46.41 15.1212C46.5735 14.9566 46.6654 14.7341 46.6657 14.502C46.6661 14.27 46.5748 14.0464 46.4117 13.8813Z" fill="#101162"/>
</svg>
