<svg width="18" height="16" viewBox="0 0 18 16" fill="none" xmlns="http://www.w3.org/2000/svg">
<path fill-rule="evenodd" clip-rule="evenodd" d="M1.69248 7.06238C6.1656 5.03113 9.14248 3.68113 10.6381 3.02551C14.8944 1.16738 15.7881 0.846758 16.3637 0.833008C16.4912 0.833008 16.7725 0.859882 16.9644 1.02051C17.1175 1.15426 17.1562 1.32801 17.1819 1.46176C17.2069 1.59488 17.2325 1.87613 17.2069 2.08988C16.9775 4.62988 15.9806 10.793 15.4694 13.6274C15.2519 14.8299 14.83 15.2311 14.4212 15.2711C13.5269 15.3518 12.8494 14.6561 11.9931 14.068C10.6381 13.1455 9.88435 12.5711 8.5681 11.6618C7.04685 10.6193 8.0306 10.0443 8.89998 9.10863C9.12998 8.86801 13.0537 5.12426 13.1306 4.78988C13.1431 4.74988 13.1431 4.58988 13.0537 4.50926C12.9644 4.42926 12.8362 4.45613 12.7344 4.48301C12.5937 4.50988 10.4469 6.00676 6.26748 8.96113C5.65373 9.40238 5.10498 9.61613 4.60623 9.60301C4.05623 9.58988 3.00873 9.28238 2.21623 9.01488C1.25748 8.69363 0.491229 8.51988 0.554979 7.95863C0.593104 7.66488 0.976854 7.37051 1.69248 7.06301V7.06238Z" fill="white"/>
</svg>
