<svg width="17" height="17" viewBox="0 0 17 17" fill="none" xmlns="http://www.w3.org/2000/svg">
<path fill-rule="evenodd" clip-rule="evenodd" d="M14.5152 2.58866C13.7448 1.81788 12.8295 1.20709 11.8221 0.791446C10.8147 0.375799 9.73502 0.163506 8.64522 0.166785C4.07085 0.166785 0.34835 3.87116 0.346475 8.42491C0.346475 9.88054 0.727724 11.3012 1.45397 12.5537L0.2771 16.833L4.67585 15.6849C5.89354 16.3446 7.25658 16.69 8.64147 16.6899H8.64522C13.219 16.6899 16.9415 12.9849 16.9433 8.43116C16.9463 7.34495 16.7332 6.26899 16.3163 5.26595C15.8994 4.26291 15.2872 3.35281 14.5152 2.58866ZM8.64522 15.2949H8.6421C7.4046 15.2949 6.19085 14.9637 5.1321 14.3387L4.88022 14.1899L2.2696 14.8712L2.96585 12.338L2.8021 12.078C2.11163 10.9848 1.74598 9.71792 1.74773 8.42491C1.74898 4.64054 4.84335 1.56116 8.64773 1.56116C9.5531 1.55869 10.45 1.73528 11.2869 2.08077C12.1237 2.42627 12.884 2.93384 13.524 3.57429C14.1658 4.20938 14.6748 4.96582 15.0213 5.79955C15.3679 6.63328 15.5452 7.52764 15.5427 8.43054C15.5408 12.2162 12.4465 15.2949 8.64522 15.2949ZM12.4284 10.1543C12.2208 10.0512 11.2015 9.55179 11.0115 9.48304C10.8215 9.41429 10.6834 9.37928 10.5452 9.58616C10.4071 9.79241 10.0096 10.2574 9.88898 10.3955C9.76773 10.533 9.64647 10.5505 9.43897 10.4468C9.2321 10.3437 8.56398 10.1255 7.77148 9.42241C7.15523 8.87554 6.73897 8.19991 6.61835 7.99304C6.4971 7.78679 6.60585 7.67429 6.7096 7.57179C6.80272 7.47929 6.91647 7.33054 7.02022 7.21054C7.12397 7.08991 7.15835 7.00429 7.22773 6.86616C7.29647 6.72866 7.2621 6.60804 7.21023 6.50491C7.15835 6.40116 6.74397 5.38554 6.57085 4.97241C6.40272 4.56991 6.2321 4.62429 6.1046 4.61804C5.98397 4.61179 5.84522 4.61054 5.7071 4.61054C5.56897 4.61054 5.3446 4.66241 5.15397 4.86866C4.96397 5.07554 4.42897 5.57491 4.42897 6.59054C4.42897 7.60616 5.17147 8.58741 5.27522 8.72554C5.37897 8.86304 6.73773 10.9474 8.8171 11.8412C9.3121 12.0537 9.69835 12.1805 9.9996 12.2762C10.4958 12.433 10.9483 12.4105 11.3058 12.3574C11.704 12.2987 12.5321 11.8587 12.7046 11.3762C12.8777 10.8949 12.8777 10.4812 12.8258 10.3949C12.774 10.3093 12.6359 10.2574 12.4284 10.1543Z" fill="white"/>
</svg>
